# xmcd
#
# Track frame offsets:
#	150
#	16907
#	32527
#	59333
#	84468
#	108075
#	130795
#	147201
#	167581
#
# Disc length: 2520 seconds
#
# Revision: 1
# Processed by: cddbd v1.5.1PL0 Copyright (c) Steve Scherf et al.
# Submitted via: audiograbber 1.83.01
#
DISCID=6609d609
DTITLE=Jay Fury and the Habanero Shakers - Kooltown
DYEAR=1900
DGENRE=Rock
TTITLE0=I Like it Hot
TTITLE1=Dentist
TTITLE2=KoolTown
TTITLE3=15 Wah Pedals
TTITLE4=Eyes of a Child
TTITLE5=Trillium Ain't Just a Flower, Baby
TTITLE6=Funky Island Rock
TTITLE7=Funky Bottom
TTITLE8=Peace March
EXTD=
EXTT0=
EXTT1=
EXTT2=
EXTT3=
EXTT4=
EXTT5=
EXTT6=
EXTT7=
EXTT8=
PLAYORDER=
